<?xml version="1.0" encoding="UTF-8" standalone="no"?>
<!-- Created with Inkscape (http://www.inkscape.org/) -->

<svg
   width="210mm"
   height="297mm"
   viewBox="0 0 210 297"
   version="1.1"
   id="svg5"
   inkscape:version="1.1 (c4e8f9e, 2021-05-24)"
   sodipodi:docname="BlindNoiseCase.svg"
   xmlns:inkscape="http://www.inkscape.org/namespaces/inkscape"
   xmlns:sodipodi="http://sodipodi.sourceforge.net/DTD/sodipodi-0.dtd"
   xmlns="http://www.w3.org/2000/svg"
   xmlns:svg="http://www.w3.org/2000/svg">
  <sodipodi:namedview
     id="namedview7"
     pagecolor="#ffffff"
     bordercolor="#666666"
     borderopacity="1.0"
     inkscape:pageshadow="2"
     inkscape:pageopacity="0.0"
     inkscape:pagecheckerboard="0"
     inkscape:document-units="mm"
     showgrid="false"
     inkscape:zoom="0.75187991"
     inkscape:cx="184.86995"
     inkscape:cy="1176.3847"
     inkscape:window-width="1864"
     inkscape:window-height="1016"
     inkscape:window-x="56"
     inkscape:window-y="27"
     inkscape:window-maximized="1"
     inkscape:current-layer="layer1" />
  <defs
     id="defs2" />
  <g
     inkscape:label="Wall"
     inkscape:groupmode="layer"
     id="layer1"
     style="display:inline">
    <path
       id="rect1155"
       style="fill:#ff0000;stroke:#000000;stroke-width:0.1;stop-color:#000000"
       d="m 110.25453,213.28006 -0.0124,0.003 -0.39325,5.2e-4 -0.39326,0.002 -0.39223,0.002 -0.3917,0.003 -0.39119,0.003 -0.39068,0.003 -0.39015,0.003 -0.38913,0.003 -0.3886,0.003 -0.38809,0.002 -0.38706,0.001 -0.38654,5.1e-4 -0.38551,-0.001 -0.3855,-0.002 -0.38396,-0.004 -0.38395,-0.006 h -0.001 -5.2e-4 -0.001 -0.001 -10e-4 -0.001 -0.001 -10e-4 -0.001 -0.001 -0.002 -0.001 -10e-4 -0.001 -0.001 -10e-4 l -3.94601,0.001 -3.945889,5.2e-4 h -3.94653 l -3.946011,-5.2e-4 -3.946531,-5.2e-4 -3.946527,-0.001 -3.946531,-0.002 -3.946527,-5.2e-4 -3.94653,-5.1e-4 h -3.946558 l -3.94653,5.1e-4 -3.947046,5.2e-4 -3.946528,0.003 -3.947046,0.003 -3.94653,0.004 -3.947047,0.005 h -0.0015 -0.0016 l -0.0016,-5.1e-4 h -0.0015 -0.0016 -0.0016 -0.0016 -0.0016 -0.0021 -0.0021 -0.0016 -0.0016 -0.0016 l -0.0015,5.1e-4 h -0.0016 -0.0016 l -1.914612,0.0853 -1.906344,0.17518 -1.894975,0.26407 -1.880505,0.35192 -1.861386,0.43718 -1.839164,0.52193 -1.813325,0.60513 -1.784389,0.68627 -1.750796,0.76687 -1.714624,0.84543 -1.674317,0.92294 -1.630908,0.99942 -1.582849,1.07332 -1.532206,1.1467 -1.477946,1.21802 -1.419552,1.28881 -1.406632,1.38648 -1.335319,1.4521 -1.2634767,1.51412 -1.1885577,1.57252 -1.1125936,1.62625 -1.0340453,1.6769 -0.9544638,1.7229 -0.8728149,1.7663 -0.7890991,1.80454 -0.7038329,1.8402 -0.6170166,1.87068 -0.5276164,1.89859 -0.43666612,1.92185 -0.34468308,1.94149 -0.24959717,1.9575 -0.1539957,1.96939 v 5.1e-4 5.2e-4 5.2e-4 5.2e-4 l -0.075964,1.94199 0.016536,1.94252 0.1080037,1.93787 0.1984375,1.93063 0.28783815,1.91874 0.37568882,1.90325 0.4630208,1.88412 0.5488038,1.86036 0.633553,1.83295 0.7177855,1.80248 0.7999513,1.76681 0.8821166,1.72857 0.9622152,1.68519 1.0417968,1.63864 1.1203451,1.58853 1.1973431,1.53377 1.3146357,1.5472 1.389063,1.47794 1.459859,1.40612 1.526521,1.3317 1.589051,1.25521 1.647961,1.17669 1.702739,1.09606 1.753381,1.01285 1.799373,0.92758 1.842782,0.83976 1.881021,0.74983 1.915128,0.65783 1.946135,0.56327 1.97249,0.46665 1.99471,0.3674 2.013315,0.26664 0.796851,0.0791 0.7953,0.063 0.793231,0.0491 0.791684,0.0367 0.789099,0.0253 0.787032,0.016 0.784966,0.008 0.782896,0.003 0.780315,-0.003 0.777732,-0.006 0.775663,-0.007 0.772562,-0.006 0.769977,-0.006 0.767398,-0.003 0.764294,0.003 0.761193,0.0103 h 0.0016 0.0016 0.0016 0.0016 0.0016 10e-4 0.0021 0.0016 0.0015 0.0016 0.0016 0.0016 0.0016 0.0016 0.0016 0.0016 3.953248 3.953245 3.953248 3.953248 3.953761 3.953248 3.953764 3.953248 3.953764 3.953762 3.953763 3.953764 l 3.953637,-0.003 3.95376,-0.003 3.95429,-0.004 3.95376,-0.005 h 0.002 0.002 0.002 0.003 0.002 0.002 0.002 0.002 0.002 0.002 0.002 0.002 0.002 0.002 0.003 0.002 l 1.91358,-0.0858 1.90583,-0.17621 1.89394,-0.26458 1.87947,-0.35193 1.86087,-0.4377 1.83813,-0.52194 1.81281,-0.60513 1.78335,-0.68625 1.75028,-0.76689 1.71411,-0.84543 1.67328,-0.92294 1.62988,-0.99891 1.58285,-1.07331 1.53169,-1.14617 1.47691,-1.21751 1.41903,-1.28828 1.40663,-1.3865 1.33533,-1.45208 1.26348,-1.51414 1.18856,-1.57199 1.11259,-1.62676 1.03405,-1.6764 0.95446,-1.72342 0.87282,-1.76628 0.7891,-1.80454 0.70383,-1.8402 0.61702,-1.87069 0.52761,-1.8986 0.43667,-1.92184 0.34468,-1.94149 0.2496,-1.9575 0.15348,-1.96939 0.076,-1.9358 -0.016,-1.9358 -0.10697,-1.93218 -0.19637,-1.92391 -0.28525,-1.91306 -0.37311,-1.89756 -0.4594,-1.87792 -0.54467,-1.85519 -0.6289,-1.82831 -0.71262,-1.79731 -0.79478,-1.76268 -0.87592,-1.72393 -0.95653,-1.68206 -1.03508,-1.63556 -1.11311,-1.58544 -1.19011,-1.53168 -1.31464,-1.55547 -1.3901,-1.48621 -1.46193,-1.41335 -1.5291,-1.33945 -1.59215,-1.26246 -1.65158,-1.18339 -1.70687,-1.10226 -1.75752,-1.01802 -1.80454,-0.93276 -1.84795,-0.8444 -1.88619,-0.75395 -1.92133,-0.66146 -1.95234,-0.56586 -1.97869,-0.46922 -2.00142,-0.36897 -2.01952,-0.26717 v 5.2e-4 h 5.2e-4 v 5.2e-4 h 5.1e-4 v 5.1e-4 h 5.2e-4 v 5.2e-4 l -0.40152,-0.0419 -0.40153,-0.0372 -0.40101,-0.0331 -0.40049,-0.0294 -0.39998,-0.0264 -0.39946,-0.0227 -0.39894,-0.0191 -0.39894,-0.0165 -0.39791,-0.014 -0.39739,-0.0114 -0.39739,-0.009 -0.39636,-0.007 -0.39584,-0.005 -0.39533,-0.003 -0.39481,-0.002 z m -68.347642,1.82986 h 2.187464 2.187463 2.187464 2.187461 2.187464 2.187464 2.187464 2.187464 2.187461 2.187982 2.187462 2.187463 2.187464 2.187464 2.187464 2.187461 2.187464 2.187464 2.187464 2.187464 2.187463 2.187462 2.187464 2.187979 2.187464 2.187461 2.187344 2.18746 2.18746 2.18747 2.18746 2.18746 l 2.06448,0.0522 2.03657,0.154 2.00659,0.25321 1.97352,0.35088 1.93839,0.44494 1.90065,0.53744 1.86087,0.62735 1.81798,0.71417 1.7725,0.79891 1.72548,0.88109 1.67483,0.96118 1.62264,1.03818 1.56786,1.11311 1.50999,1.18545 1.45004,1.25523 1.38751,1.32291 1.32292,1.38751 1.25522,1.45056 1.18546,1.50999 1.11311,1.56734 1.03869,1.62264 0.96067,1.67535 0.8816,1.72496 0.79892,1.77302 0.71416,1.81798 0.62684,1.86035 0.53743,1.90066 0.44545,1.93838 0.35037,1.97404 0.25373,2.00608 0.15348,2.03657 0.0522,2.06447 -0.0522,2.06447 -0.15348,2.03657 -0.25373,2.0066 -0.35037,1.97352 -0.44545,1.93839 -0.53743,1.90066 -0.62684,1.86087 -0.71416,1.81798 -0.79892,1.7725 -0.8816,1.72548 -0.96067,1.67481 -1.03869,1.62266 -1.11311,1.56784 -1.18546,1.51001 -1.25522,1.45002 -1.32292,1.38753 -1.38751,1.32291 -1.45004,1.25521 -1.50999,1.18547 -1.56786,1.1131 -1.62264,1.0387 -1.67483,0.96068 -1.72548,0.88159 -1.7725,0.79891 -1.81798,0.71416 -1.86087,0.62685 -1.90065,0.53743 -1.93839,0.44545 -1.97352,0.35036 -2.00659,0.25373 -2.03657,0.15402 -2.06448,0.0517 h -2.18746 -2.18746 -2.18747 -2.18746 -2.18746 -2.187344 -2.187461 -2.187464 -2.187979 -2.187464 -2.187462 -2.187463 -2.187464 -2.187464 -2.187464 -2.187464 -2.187461 -2.187464 -2.187464 -2.187464 -2.187463 -2.187462 -2.187982 -2.187461 -2.187464 -2.187464 -2.187464 -2.187464 -2.187461 -2.187464 -2.187463 -2.187464 l -2.064473,-0.0517 -2.036569,-0.15402 -2.006595,-0.25373 -1.973524,-0.35036 -1.938383,-0.44545 -1.900658,-0.53743 -1.86087,-0.62685 -1.817976,-0.71416 -1.772501,-0.79891 -1.725476,-0.88159 -1.674833,-0.96068 -1.62264,-1.0387 -1.567863,-1.1131 -1.509986,-1.18547 -1.45004,-1.25521 -1.387513,-1.32291 -1.322916,-1.38753 -1.255221,-1.45002 -1.1854522,-1.51001 -1.1131022,-1.56784 -1.0386968,-1.62266 -0.9606648,-1.67481 -0.8815998,-1.72548 -0.7989176,-1.7725 -0.7141684,-1.81798 -0.6268352,-1.86087 -0.5374349,-1.90066 -0.4454506,-1.93839 -0.3503663,-1.97352 -0.2537314,-2.0066 -0.1539957,-2.03657 -0.051676,-2.06447 0.051676,-2.06447 0.1539957,-2.03657 0.2537314,-2.00608 0.3503663,-1.97404 0.4454506,-1.93838 0.5374349,-1.90066 0.6268352,-1.86035 0.7141684,-1.81798 0.7989176,-1.77302 0.8815998,-1.72496 0.9606648,-1.67535 1.0386968,-1.62264 1.1131022,-1.56734 1.1854522,-1.50999 1.255221,-1.45056 1.322916,-1.38751 1.387513,-1.32291 1.45004,-1.25523 1.509986,-1.18545 1.567863,-1.11311 1.62264,-1.03818 1.674833,-0.96118 1.725476,-0.88109 1.772501,-0.79891 1.817976,-0.71417 1.86087,-0.62735 1.900658,-0.53744 1.938383,-0.44494 1.973524,-0.35088 2.006595,-0.25321 2.036569,-0.154 z" />
  </g>
  <g
     inkscape:groupmode="layer"
     id="layer2"
     inkscape:label="Base"
     style="display:inline">
    <path
       id="rect1096"
       style="fill:none;stroke:#000000;stroke-width:0.1;stop-color:#000000"
       d="m 110.24753,213.28194 -0.39358,7.3e-4 -0.393,0.002 -0.3924,0.002 -0.3918,0.003 -0.39119,0.003 -0.39055,0.003 -0.38991,0.003 -0.38926,0.003 -0.38859,0.003 -0.38791,0.002 -0.38722,0.001 -0.38652,2.2e-4 -0.3858,-9.7e-4 -0.38507,-0.002 -0.38433,-0.004 -0.38357,-0.006 -0.001,-1e-5 -0.001,-10e-6 h -10e-4 l -0.001,-1e-5 -0.001,-1e-5 h -10e-4 -0.001 -0.001 -10e-4 -0.001 -0.001 l -10e-4,1e-5 -0.001,1e-5 h -0.001 l -10e-4,10e-6 -0.001,1e-5 -3.94618,0.001 -3.946103,5.8e-4 -3.946284,2e-5 -3.946337,-4.2e-4 -3.946386,-7.1e-4 -3.946434,-8.6e-4 -3.946482,-8.8e-4 -3.946527,-7.5e-4 -3.946571,-4.9e-4 -3.946613,-7e-5 -3.946654,4.7e-4 -3.946694,0.001 -3.946731,0.002 -3.946768,0.003 -3.946803,0.004 -3.946836,0.005 -0.0016,-1e-5 -0.0016,-10e-6 -0.0016,-2e-5 h -0.0016 l -0.0016,-1e-5 -0.0016,-1e-5 h -0.0016 -0.0016 -0.0016 -0.0016 l -0.0016,1e-5 -0.0016,1e-5 h -0.0016 l -0.0016,2e-5 -0.0016,10e-6 -0.0016,1e-5 -1.914355,0.0853 -1.906535,0.17545 -1.89512,0.26419 -1.880107,0.35151 -1.861501,0.4374 -1.839298,0.52188 -1.8135,0.60494 -1.784107,0.68658 -1.751117,0.7668 -1.714532,0.84561 -1.674352,0.92298 -1.630576,0.99896 -1.583205,1.0735 -1.532237,1.14662 -1.477675,1.21833 -1.419517,1.28862 -1.406529,1.38649 -1.335724,1.45222 -1.2630897,1.51412 -1.1886618,1.57217 -1.1124055,1.62639 -1.0343318,1.67676 -0.9544407,1.72331 -0.8727326,1.766 -0.7892073,1.80486 -0.7038648,1.83988 -0.6167052,1.87106 -0.5277283,1.8984 -0.43693462,1.9219 -0.34432444,1.94156 -0.24989491,1.95739 -0.1536493,1.96937 -5.2e-6,1.2e-4 -3.2e-6,1.1e-4 -1.3e-6,1.1e-4 1e-7,1.1e-4 1.4e-6,1e-4 2.2e-6,1e-4 2.9e-6,1.1e-4 3.1e-6,1.1e-4 3.1e-6,1.1e-4 2.9e-6,1.2e-4 2.2e-6,1.3e-4 1.4e-6,1.3e-4 1e-7,1.4e-4 -1.3e-6,1.6e-4 -3.2e-6,1.6e-4 -5.2e-6,1.8e-4 -0.075992,1.94219 0.016542,1.94217 0.107985,1.93827 0.1983375,1.93048 0.28759939,1.91879 0.37577078,1.90324 0.4628495,1.88378 0.5488386,1.86045 0.6337368,1.83323 0.7175442,1.80211 0.8002608,1.76713 0.8818865,1.72823 0.9624213,1.68548 1.0418655,1.63881 1.1202188,1.58828 1.1974806,1.53384 1.3142997,1.54732 1.389091,1.47773 1.459846,1.4059 1.526575,1.33181 1.589276,1.25544 1.647953,1.17684 1.702602,1.09595 1.753227,1.01283 1.799825,0.92744 1.842397,0.83978 1.880944,0.74988 1.915463,0.6577 1.945958,0.56328 1.972426,0.46659 1.994868,0.36765 2.013284,0.26644 0.796987,0.079 0.795199,0.0632 0.793327,0.0491 0.791371,0.0365 0.789331,0.0255 0.787207,0.0161 0.785,0.008 0.782708,0.002 0.780333,-0.003 0.777873,-0.006 0.77533,-0.007 0.772704,-0.007 0.769992,-0.005 0.767197,-0.002 0.764319,0.003 0.761356,0.01 0.0015,2e-5 0.0015,1e-5 0.0015,10e-6 h 0.0015 l 0.0015,1e-5 h 0.0015 l 0.0015,10e-6 h 0.0015 0.0015 l 0.0015,-10e-6 h 0.0015 l 0.0015,-1e-5 h 0.0015 l 0.0015,-10e-6 0.0015,-1e-5 0.0015,-2e-5 3.953281,-0.001 3.953327,-5.8e-4 3.953372,-10e-6 3.953417,4.2e-4 3.953462,7.1e-4 3.953507,8.6e-4 3.95355,8.8e-4 3.953595,7.4e-4 3.953638,4.8e-4 3.953682,6e-5 3.953724,-4.8e-4 3.953768,-10e-4 3.953684,-0.002 3.95385,-0.003 3.9539,-0.004 3.95393,-0.005 0.002,2e-5 0.002,10e-6 0.002,10e-6 0.002,1e-5 0.002,10e-6 h 0.002 l 0.002,1e-5 h 0.002 0.002 l 0.002,-1e-5 h 0.002 l 0.002,-10e-6 0.002,-1e-5 0.002,-10e-6 0.002,-10e-6 0.002,-2e-5 1.9136,-0.0858 1.90576,-0.17589 1.89433,-0.26456 1.87931,-0.35182 1.86069,-0.43766 1.8385,-0.52207 1.8127,-0.60507 1.78332,-0.68664 1.75035,-0.76678 1.71378,-0.84552 1.67362,-0.92283 1.62987,-0.99872 1.58253,-1.07318 1.5316,-1.14623 1.47708,-1.21785 1.41897,-1.28806 1.40657,-1.38644 1.33575,-1.45219 1.26312,-1.5141 1.18867,-1.57216 1.11241,-1.6264 1.03434,-1.67677 0.95443,-1.72332 0.87273,-1.76602 0.78919,-1.80488 0.70386,-1.8399 0.61669,-1.87108 0.52771,-1.89841 0.43693,-1.92191 0.34431,-1.94157 0.24989,-1.95738 0.15364,-1.96935 0.0758,-1.93578 -0.016,-1.93582 -0.10685,-1.93199 -0.19659,-1.92432 -0.28525,-1.91279 -0.37285,-1.89741 -0.45938,-1.87817 -0.54484,-1.85509 -0.62923,-1.82813 -0.71254,-1.79735 -0.7948,-1.76269 -0.87599,-1.72418 -0.95609,-1.68183 -1.03514,-1.63562 -1.11311,-1.58555 -1.19002,-1.53163 -1.31487,-1.55572 -1.39032,-1.48583 -1.46171,-1.41365 -1.52904,-1.3392 -1.5923,-1.26245 -1.6515,-1.18342 -1.70663,-1.1021 -1.7577,-1.01849 -1.8047,-0.9326 -1.84764,-0.84442 -1.88652,-0.75396 -1.92133,-0.6612 -1.95208,-0.56617 -1.97876,-0.46884 -2.00137,-0.36923 -2.01994,-0.26733 1.3e-4,1.2e-4 1.2e-4,1.3e-4 1.3e-4,1.2e-4 1.2e-4,1.3e-4 1.3e-4,1.2e-4 1.2e-4,1.3e-4 1.3e-4,1.2e-4 1.2e-4,1.3e-4 1.3e-4,1.2e-4 1.2e-4,1.3e-4 1.3e-4,1.2e-4 1.2e-4,1.3e-4 1.3e-4,1.2e-4 1.2e-4,1.3e-4 1.3e-4,1.2e-4 1.2e-4,1.3e-4 -0.40178,-0.0414 -0.40136,-0.0373 -0.40093,-0.0333 -0.40048,-0.0296 -0.40004,-0.026 -0.39956,-0.0226 -0.39908,-0.0195 -0.39858,-0.0166 -0.39807,-0.0138 -0.39756,-0.0113 -0.39702,-0.009 -0.39647,-0.007 -0.39591,-0.005 -0.39534,-0.003 -0.39475,-0.002 -0.39416,-3.7e-4 v -1e-5 0 l -1e-5,-10e-6 v 0 0 l -1e-5,-1e-5 v 0 -1e-5 h -1e-5 v 0 -1e-5 h -10e-6 v -1e-5 0 h -1e-5 z"
       sodipodi:nodetypes="ccccccccccccccccccccccccccccccccccccccccccccccccccccccccccccccccccccccccccccccccccccccccccccccccccccccccccccccccccccccccccccccccccccccccccccccccccccccccccccccccccccccccccccccccccccccccccccccccccccccccccccccccccccccccccccccccccccccccccccccccccccccccccccccccccccccccccccccccccccccccccccccccccccccccccccccccccccccccccccccccc" />
  </g>
  <g
     inkscape:groupmode="layer"
     id="layer3"
     inkscape:label="Support">
    <path
       id="rect1096-5"
       style="display:inline;fill:#ffff00;stroke:#000000;stroke-width:0.1;stop-color:#000000"
       d="M 470.91211 813.47656 L 470.91211 837.42188 L 476.35352 839.59375 L 482.33984 842.32617 L 488.19336 845.35156 L 493.90039 848.6582 L 499.42969 852.23242 L 504.77344 856.05469 L 509.93359 860.15234 L 514.87891 864.47852 L 519.58984 869.0332 L 524.07031 873.83203 L 528.36523 878.91016 L 532.24219 883.9082 L 535.83008 889.00781 L 539.16602 894.2793 L 542.25195 899.71289 L 545.08594 905.28516 L 547.66211 911 L 549.97266 916.81641 L 552.00977 922.74414 L 553.77539 928.75977 L 555.26562 934.85742 L 556.47656 941.00586 L 557.39844 947.21484 L 558.04102 953.44531 L 558.38867 959.68164 L 558.43164 965.92773 L 558.18945 972.26953 L 557.67969 978.74219 L 556.88281 985.03906 L 555.76758 991.29883 L 554.35742 997.50781 L 552.64453 1003.6484 L 550.65234 1009.709 L 548.37109 1015.666 L 545.80859 1021.5215 L 542.97461 1027.2559 L 539.88867 1032.8438 L 536.54492 1038.2637 L 532.92773 1043.541 L 529.09766 1048.6191 L 525.02148 1053.498 L 520.71094 1058.1797 L 516.11133 1062.7109 L 511.50586 1066.9043 L 506.74414 1070.8164 L 501.79102 1074.5234 L 496.69141 1077.9922 L 491.41211 1081.2246 L 486.00195 1084.2148 L 480.44336 1086.9473 L 474.75977 1089.4414 L 470.91211 1090.9219 L 470.91211 1114.8496 L 476.625 1112.9434 L 483.36523 1110.3477 L 489.98047 1107.4492 L 496.45703 1104.2539 L 502.7832 1100.7656 L 508.94336 1096.9902 L 514.92578 1092.9355 L 520.71289 1088.6035 L 526.29688 1084 L 531.66016 1079.1309 L 536.97461 1073.8906 L 542.02344 1068.4023 L 546.79883 1062.6797 L 551.29102 1056.7383 L 555.49414 1050.5918 L 559.4043 1044.2539 L 563.01172 1037.7402 L 566.31055 1031.0664 L 569.29297 1024.2441 L 571.95312 1017.291 L 574.2832 1010.2188 L 576.2793 1003.043 L 577.92969 995.7793 L 579.23047 988.44141 L 580.17578 981.04297 L 580.75586 973.59961 L 581.04297 966.2832 L 580.98242 958.9668 L 580.57812 951.66602 L 579.83594 944.39258 L 578.75781 937.16211 L 577.34766 929.99219 L 575.61133 922.89258 L 573.55273 915.88086 L 571.17383 908.97266 L 568.48047 902.17969 L 565.47656 895.51758 L 562.16602 889 L 558.55273 882.64453 L 554.64062 876.46094 L 550.43359 870.46875 L 545.93555 864.67969 L 540.9668 858.80078 L 535.71094 853.18555 L 530.1875 847.8418 L 524.4082 842.7793 L 518.39062 838.00781 L 512.14844 833.53516 L 505.69727 829.37109 L 499.05469 825.52148 L 492.23438 821.99609 L 485.25 818.80469 L 478.11914 815.95508 L 470.91211 813.47656 z M 110.49609 813.5293 L 104.80859 815.42773 L 98.064453 818.02148 L 91.447266 820.91992 L 84.966797 824.11719 L 78.638672 827.60547 L 72.474609 831.38086 L 66.492188 835.4375 L 60.701172 839.77148 L 55.115234 844.37695 L 49.75 849.24609 L 44.433594 854.48633 L 39.386719 859.97461 L 34.611328 865.69727 L 30.119141 871.64062 L 25.914062 877.78711 L 22.005859 884.125 L 18.398438 890.63867 L 15.099609 897.3125 L 12.117188 904.13477 L 9.4570312 911.08789 L 7.125 918.16016 L 5.1308594 925.33398 L 3.4804688 932.59766 L 2.1777344 939.9375 L 1.234375 947.33398 L 0.65429688 954.77734 L 0.65429688 954.7793 L 0.65429688 954.78125 L 0.65429688 954.7832 L 0.65429688 954.78516 L 0.36523438 962.12695 L 0.42773438 969.4668 L 0.8359375 976.79297 L 1.5859375 984.08789 L 2.6738281 991.3418 L 4.09375 998.5332 L 5.84375 1005.6543 L 7.9179688 1012.6855 L 10.3125 1019.6152 L 13.025391 1026.4258 L 16.048828 1033.1035 L 19.382812 1039.6367 L 23.019531 1046.0059 L 26.957031 1052.2012 L 31.191406 1058.2031 L 35.716797 1064 L 40.685547 1069.8496 L 45.935547 1075.4336 L 51.453125 1080.748 L 57.222656 1085.7812 L 63.228516 1090.5254 L 69.457031 1094.9746 L 75.892578 1099.1152 L 82.519531 1102.9434 L 89.320312 1106.4492 L 96.285156 1109.623 L 103.39453 1112.457 L 110.49609 1114.8965 L 110.49609 1090.957 L 105.16211 1088.8281 L 99.197266 1086.1113 L 93.359375 1083.0996 L 87.667969 1079.8164 L 82.146484 1076.2578 L 76.808594 1072.4492 L 71.669922 1068.3887 L 66.732422 1064.0781 L 62.015625 1059.5371 L 57.541016 1054.7754 L 53.253906 1049.7266 L 49.339844 1044.7227 L 45.738281 1039.6133 L 42.378906 1034.3359 L 39.279297 1028.8945 L 36.421875 1023.293 L 33.832031 1017.5723 L 31.505859 1011.7461 L 29.453125 1005.7969 L 27.673828 999.75977 L 26.167969 993.63867 L 24.951172 987.47461 L 24.021484 981.25195 L 23.371094 975.00781 L 23.023438 968.74805 L 22.980469 962.48047 L 23.246094 955.67383 A 22.606108 22.606108 0 0 0 23.259766 955.11719 L 23.259766 955.65234 L 23.724609 949.63672 L 24.529297 943.33984 L 25.636719 937.08008 L 27.054688 930.87109 L 28.759766 924.72852 L 30.759766 918.66797 L 33.033203 912.71094 L 35.603516 906.85742 L 38.429688 901.12109 L 41.515625 895.54102 L 44.875 890.10742 L 48.476562 884.83789 L 52.316406 879.75977 L 56.398438 874.87109 L 60.685547 870.19922 L 65.285156 865.67383 L 69.914062 861.47461 L 74.667969 857.54688 L 79.613281 853.84766 L 84.722656 850.37891 L 90.007812 847.15234 L 95.433594 844.15625 L 100.97656 841.42383 L 106.66016 838.9375 L 110.49609 837.45703 L 110.49609 813.5293 z "
       transform="scale(0.26458333)" />
  </g>
</svg>
