  0
SECTION
  2
HEADER
  9
$ACADVER
  1
AC1014
  9
$HANDSEED
  5
FFFF
  9
$MEASUREMENT
 70
     1
  0
ENDSEC
  0
SECTION
  2
TABLES
  0
TABLE
  2
VPORT
  5
8
330
0
100
AcDbSymbolTable
 70
     4
  0
VPORT
  5
2E
330
8
100
AcDbSymbolTableRecord
100
AcDbViewportTableRecord
  2
*ACTIVE
 70
     0
 10
0.0
 20
0.0
 11
1.0
 21
1.0
 12
210.0
 22
148.5
 13
0.0
 23
0.0
 14
10.0
 24
10.0
 15
10.0
 25
10.0
 16
0.0
 26
0.0
 36
1.0
 17
0.0
 27
0.0
 37
0.0
 40
341.0
 41
1.24
 42
50.0
 43
0.0
 44
0.0
 50
0.0
 51
0.0
 71
     0
 72
   100
 73
     1
 74
     3
 75
     0
 76
     0
 77
     0
 78
     0
  0
ENDTAB
  0
TABLE
  2
LTYPE
  5
5
330
0
100
AcDbSymbolTable
 70
     1
  0
LTYPE
  5
14
330
5
100
AcDbSymbolTableRecord
100
AcDbLinetypeTableRecord
  2
BYBLOCK
 70
     0
  3

 72
    65
 73
     0
 40
0.0
  0
LTYPE
  5
15
330
5
100
AcDbSymbolTableRecord
100
AcDbLinetypeTableRecord
  2
BYLAYER
 70
     0
  3

 72
    65
 73
     0
 40
0.0
  0
LTYPE
  5
16
330
5
100
AcDbSymbolTableRecord
100
AcDbLinetypeTableRecord
  2
CONTINUOUS
 70
     0
  3
Solid line
 72
    65
 73
     0
 40
0.0
  0
ENDTAB
  0
TABLE
  2
LAYER
  5
2
100
AcDbSymbolTable
 70
4
  0
LAYER
  5
50
100
AcDbSymbolTableRecord
100
AcDbLayerTableRecord
  2
0
 70
0
  6
CONTINUOUS
  0
LAYER
  5
51
100
AcDbSymbolTableRecord
100
AcDbLayerTableRecord
  2
Wall
 70
0
  6
CONTINUOUS
  0
LAYER
  5
52
100
AcDbSymbolTableRecord
100
AcDbLayerTableRecord
  2
Base
 70
0
  6
CONTINUOUS
  0
LAYER
  5
53
100
AcDbSymbolTableRecord
100
AcDbLayerTableRecord
  2
Support
 70
0
  6
CONTINUOUS
  0
ENDTAB
  0
TABLE
  2
STYLE
  5
3
330
0
100
AcDbSymbolTable
 70
     1
  0
STYLE
  5
11
330
3
100
AcDbSymbolTableRecord
100
AcDbTextStyleTableRecord
  2
STANDARD
 70
     0
 40
0.0
 41
1.0
 50
0.0
 71
     0
 42
2.5
  3
txt
  4

  0
ENDTAB
  0
TABLE
  2
VIEW
  5
6
330
0
100
AcDbSymbolTable
 70
     0
  0
ENDTAB
  0
TABLE
  2
UCS
  5
7
330
0
100
AcDbSymbolTable
 70
     0
  0
ENDTAB
  0
TABLE
  2
APPID
  5
9
330
0
100
AcDbSymbolTable
 70
     2
  0
APPID
  5
12
330
9
100
AcDbSymbolTableRecord
100
AcDbRegAppTableRecord
  2
ACAD
 70
     0
  0
ENDTAB
  0
TABLE
  2
DIMSTYLE
  5
A
330
0
100
AcDbSymbolTable
 70
     1
  0
DIMSTYLE
105
27
330
A
100
AcDbSymbolTableRecord
100
AcDbDimStyleTableRecord
  2
ISO-25
 70
     0
  3

  4

  5

  6

  7

 40
1.0
 41
2.5
 42
0.625
 43
3.75
 44
1.25
 45
0.0
 46
0.0
 47
0.0
 48
0.0
140
2.5
141
2.5
142
0.0
143
0.03937007874016
144
1.0
145
0.0
146
1.0
147
0.625
 71
     0
 72
     0
 73
     0
 74
     0
 75
     0
 76
     0
 77
     1
 78
     8
170
     0
171
     3
172
     1
173
     0
174
     0
175
     0
176
     0
177
     0
178
     0
270
     2
271
     2
272
     2
273
     2
274
     3
340
11
275
     0
280
     0
281
     0
282
     0
283
     0
284
     8
285
     0
286
     0
287
     3
288
     0
  0
ENDTAB
  0
TABLE
  2
BLOCK_RECORD
  5
1
330
0
100
AcDbSymbolTable
 70
     1
  0
BLOCK_RECORD
  5
1F
330
1
100
AcDbSymbolTableRecord
100
AcDbBlockTableRecord
  2
*MODEL_SPACE
  0
BLOCK_RECORD
  5
1B
330
1
100
AcDbSymbolTableRecord
100
AcDbBlockTableRecord
  2
*PAPER_SPACE
  0
ENDTAB
  0
ENDSEC
  0
SECTION
  2
BLOCKS
  0
BLOCK
  5
20
330
1F
100
AcDbEntity
  8
0
100
AcDbBlockBegin
  2
*MODEL_SPACE
 70
     0
 10
0.0
 20
0.0
 30
0.0
  3
*MODEL_SPACE
  1

  0
ENDBLK
  5
21
330
1F
100
AcDbEntity
  8
0
100
AcDbBlockEnd
  0
BLOCK
  5
1C
330
1B
100
AcDbEntity
 67
     1
  8
0
100
AcDbBlockBegin
  2
*PAPER_SPACE
  1

  0
ENDBLK
  5
1D
330
1B
100
AcDbEntity
 67
     1
  8
0
100
AcDbBlockEnd
  0
ENDSEC
  0
SECTION
  2
ENTITIES
  0
LWPOLYLINE
  5
100
100
AcDbEntity
  8
Wall
 62
7
100
AcDbPolyline
 90
284
 70
1
 10
110.254530
 20
83.719940
 30
0.0
 10
110.242130
 20
83.716940
 30
0.0
 10
109.848880
 20
83.716420
 30
0.0
 10
109.455620
 20
83.714420
 30
0.0
 10
109.063390
 20
83.712420
 30
0.0
 10
108.671690
 20
83.709420
 30
0.0
 10
108.280500
 20
83.706420
 30
0.0
 10
107.889820
 20
83.703420
 30
0.0
 10
107.499670
 20
83.700420
 30
0.0
 10
107.110540
 20
83.697420
 30
0.0
 10
106.721940
 20
83.694420
 30
0.0
 10
106.333850
 20
83.692420
 30
0.0
 10
105.946790
 20
83.691420
 30
0.0
 10
105.560250
 20
83.690910
 30
0.0
 10
105.174740
 20
83.691910
 30
0.0
 10
104.789240
 20
83.693910
 30
0.0
 10
104.405280
 20
83.697910
 30
0.0
 10
104.021330
 20
83.703910
 30
0.0
 10
104.020330
 20
83.703910
 30
0.0
 10
104.019810
 20
83.703910
 30
0.0
 10
104.018810
 20
83.703910
 30
0.0
 10
104.017810
 20
83.703910
 30
0.0
 10
104.016810
 20
83.703910
 30
0.0
 10
104.015810
 20
83.703910
 30
0.0
 10
104.014810
 20
83.703910
 30
0.0
 10
104.013810
 20
83.703910
 30
0.0
 10
104.012810
 20
83.703910
 30
0.0
 10
104.011810
 20
83.703910
 30
0.0
 10
104.009810
 20
83.703910
 30
0.0
 10
104.008810
 20
83.703910
 30
0.0
 10
104.007810
 20
83.703910
 30
0.0
 10
104.006810
 20
83.703910
 30
0.0
 10
104.005810
 20
83.703910
 30
0.0
 10
104.004810
 20
83.703910
 30
0.0
 10
100.058800
 20
83.702910
 30
0.0
 10
96.112911
 20
83.702390
 30
0.0
 10
92.166381
 20
83.702390
 30
0.0
 10
88.220370
 20
83.702910
 30
0.0
 10
84.273839
 20
83.703430
 30
0.0
 10
80.327312
 20
83.704430
 30
0.0
 10
76.380781
 20
83.706430
 30
0.0
 10
72.434254
 20
83.706950
 30
0.0
 10
68.487724
 20
83.707460
 30
0.0
 10
64.541166
 20
83.707460
 30
0.0
 10
60.594636
 20
83.706950
 30
0.0
 10
56.647590
 20
83.706430
 30
0.0
 10
52.701062
 20
83.703430
 30
0.0
 10
48.754016
 20
83.700430
 30
0.0
 10
44.807486
 20
83.696430
 30
0.0
 10
40.860439
 20
83.691430
 30
0.0
 10
40.858939
 20
83.691430
 30
0.0
 10
40.857339
 20
83.691430
 30
0.0
 10
40.855739
 20
83.691940
 30
0.0
 10
40.854239
 20
83.691940
 30
0.0
 10
40.852639
 20
83.691940
 30
0.0
 10
40.851039
 20
83.691940
 30
0.0
 10
40.849439
 20
83.691940
 30
0.0
 10
40.847839
 20
83.691940
 30
0.0
 10
40.845739
 20
83.691940
 30
0.0
 10
40.843639
 20
83.691940
 30
0.0
 10
40.842039
 20
83.691940
 30
0.0
 10
40.840439
 20
83.691940
 30
0.0
 10
40.838839
 20
83.691940
 30
0.0
 10
40.837339
 20
83.691430
 30
0.0
 10
40.835739
 20
83.691430
 30
0.0
 10
40.834139
 20
83.691430
 30
0.0
 10
38.919527
 20
83.606130
 30
0.0
 10
37.013183
 20
83.430950
 30
0.0
 10
35.118208
 20
83.166880
 30
0.0
 10
33.237703
 20
82.814960
 30
0.0
 10
31.376317
 20
82.377780
 30
0.0
 10
29.537153
 20
81.855850
 30
0.0
 10
27.723828
 20
81.250720
 30
0.0
 10
25.939439
 20
80.564450
 30
0.0
 10
24.188643
 20
79.797580
 30
0.0
 10
22.474019
 20
78.952150
 30
0.0
 10
20.799702
 20
78.029210
 30
0.0
 10
19.168794
 20
77.029790
 30
0.0
 10
17.585945
 20
75.956470
 30
0.0
 10
16.053739
 20
74.809770
 30
0.0
 10
14.575793
 20
73.591750
 30
0.0
 10
13.156241
 20
72.302940
 30
0.0
 10
11.749609
 20
70.916460
 30
0.0
 10
10.414290
 20
69.464360
 30
0.0
 10
9.150813
 20
67.950240
 30
0.0
 10
7.962256
 20
66.377720
 30
0.0
 10
6.849662
 20
64.751470
 30
0.0
 10
5.815617
 20
63.074570
 30
0.0
 10
4.861153
 20
61.351670
 30
0.0
 10
3.988338
 20
59.585370
 30
0.0
 10
3.199239
 20
57.780830
 30
0.0
 10
2.495406
 20
55.940630
 30
0.0
 10
1.878389
 20
54.069950
 30
0.0
 10
1.350773
 20
52.171360
 30
0.0
 10
0.914107
 20
50.249510
 30
0.0
 10
0.569424
 20
48.308020
 30
0.0
 10
0.319827
 20
46.350520
 30
0.0
 10
0.165831
 20
44.381130
 30
0.0
 10
0.165831
 20
44.380620
 30
0.0
 10
0.165831
 20
44.380100
 30
0.0
 10
0.165831
 20
44.379580
 30
0.0
 10
0.165831
 20
44.379060
 30
0.0
 10
0.089867
 20
42.437070
 30
0.0
 10
0.106403
 20
40.494550
 30
0.0
 10
0.214407
 20
38.556680
 30
0.0
 10
0.412844
 20
36.626050
 30
0.0
 10
0.700682
 20
34.707310
 30
0.0
 10
1.076371
 20
32.804060
 30
0.0
 10
1.539392
 20
30.919940
 30
0.0
 10
2.088196
 20
29.059580
 30
0.0
 10
2.721749
 20
27.226630
 30
0.0
 10
3.439534
 20
25.424150
 30
0.0
 10
4.239485
 20
23.657340
 30
0.0
 10
5.121602
 20
21.928770
 30
0.0
 10
6.083817
 20
20.243580
 30
0.0
 10
7.125614
 20
18.604940
 30
0.0
 10
8.245959
 20
17.016410
 30
0.0
 10
9.443302
 20
15.482640
 30
0.0
 10
10.757938
 20
13.935440
 30
0.0
 10
12.147001
 20
12.457500
 30
0.0
 10
13.606860
 20
11.051380
 30
0.0
 10
15.133381
 20
9.719680
 30
0.0
 10
16.722432
 20
8.464470
 30
0.0
 10
18.370393
 20
7.287780
 30
0.0
 10
20.073132
 20
6.191720
 30
0.0
 10
21.826513
 20
5.178870
 30
0.0
 10
23.625886
 20
4.251290
 30
0.0
 10
25.468668
 20
3.411530
 30
0.0
 10
27.349689
 20
2.661700
 30
0.0
 10
29.264817
 20
2.003870
 30
0.0
 10
31.210952
 20
1.440600
 30
0.0
 10
33.183442
 20
0.973950
 30
0.0
 10
35.178152
 20
0.606550
 30
0.0
 10
37.191467
 20
0.339910
 30
0.0
 10
37.988318
 20
0.260810
 30
0.0
 10
38.783618
 20
0.197810
 30
0.0
 10
39.576849
 20
0.148710
 30
0.0
 10
40.368533
 20
0.112010
 30
0.0
 10
41.157632
 20
0.086710
 30
0.0
 10
41.944664
 20
0.070710
 30
0.0
 10
42.729630
 20
0.062710
 30
0.0
 10
43.512526
 20
0.059710
 30
0.0
 10
44.292841
 20
0.062710
 30
0.0
 10
45.070573
 20
0.068710
 30
0.0
 10
45.846236
 20
0.075710
 30
0.0
 10
46.618798
 20
0.081710
 30
0.0
 10
47.388775
 20
0.087710
 30
0.0
 10
48.156173
 20
0.090710
 30
0.0
 10
48.920467
 20
0.087710
 30
0.0
 10
49.681660
 20
0.077410
 30
0.0
 10
49.683260
 20
0.077410
 30
0.0
 10
49.684860
 20
0.077410
 30
0.0
 10
49.686460
 20
0.077410
 30
0.0
 10
49.688060
 20
0.077410
 30
0.0
 10
49.689660
 20
0.077410
 30
0.0
 10
49.690660
 20
0.077410
 30
0.0
 10
49.692760
 20
0.077410
 30
0.0
 10
49.694360
 20
0.077410
 30
0.0
 10
49.695860
 20
0.077410
 30
0.0
 10
49.697460
 20
0.077410
 30
0.0
 10
49.699060
 20
0.077410
 30
0.0
 10
49.700660
 20
0.077410
 30
0.0
 10
49.702260
 20
0.077410
 30
0.0
 10
49.703860
 20
0.077410
 30
0.0
 10
49.705460
 20
0.077410
 30
0.0
 10
49.707060
 20
0.077410
 30
0.0
 10
53.660308
 20
0.077410
 30
0.0
 10
57.613553
 20
0.077410
 30
0.0
 10
61.566801
 20
0.077410
 30
0.0
 10
65.520049
 20
0.077410
 30
0.0
 10
69.473810
 20
0.077410
 30
0.0
 10
73.427058
 20
0.077410
 30
0.0
 10
77.380822
 20
0.077410
 30
0.0
 10
81.334070
 20
0.077410
 30
0.0
 10
85.287834
 20
0.077410
 30
0.0
 10
89.241596
 20
0.077410
 30
0.0
 10
93.195359
 20
0.077410
 30
0.0
 10
97.149123
 20
0.077410
 30
0.0
 10
101.102760
 20
0.080410
 30
0.0
 10
105.056520
 20
0.083410
 30
0.0
 10
109.010810
 20
0.087410
 30
0.0
 10
112.964570
 20
0.092410
 30
0.0
 10
112.966570
 20
0.092410
 30
0.0
 10
112.968570
 20
0.092410
 30
0.0
 10
112.970570
 20
0.092410
 30
0.0
 10
112.973570
 20
0.092410
 30
0.0
 10
112.975570
 20
0.092410
 30
0.0
 10
112.977570
 20
0.092410
 30
0.0
 10
112.979570
 20
0.092410
 30
0.0
 10
112.981570
 20
0.092410
 30
0.0
 10
112.983570
 20
0.092410
 30
0.0
 10
112.985570
 20
0.092410
 30
0.0
 10
112.987570
 20
0.092410
 30
0.0
 10
112.989570
 20
0.092410
 30
0.0
 10
112.991570
 20
0.092410
 30
0.0
 10
112.993570
 20
0.092410
 30
0.0
 10
112.996570
 20
0.092410
 30
0.0
 10
112.998570
 20
0.092410
 30
0.0
 10
114.912150
 20
0.178210
 30
0.0
 10
116.817980
 20
0.354420
 30
0.0
 10
118.711920
 20
0.619000
 30
0.0
 10
120.591390
 20
0.970930
 30
0.0
 10
122.452260
 20
1.408630
 30
0.0
 10
124.290390
 20
1.930570
 30
0.0
 10
126.103200
 20
2.535700
 30
0.0
 10
127.886550
 20
3.221950
 30
0.0
 10
129.636830
 20
3.988840
 30
0.0
 10
131.350940
 20
4.834270
 30
0.0
 10
133.024220
 20
5.757210
 30
0.0
 10
134.654100
 20
6.756120
 30
0.0
 10
136.236950
 20
7.829430
 30
0.0
 10
137.768640
 20
8.975600
 30
0.0
 10
139.245550
 20
10.193110
 30
0.0
 10
140.664580
 20
11.481390
 30
0.0
 10
142.071210
 20
12.867890
 30
0.0
 10
143.406540
 20
14.319970
 30
0.0
 10
144.670020
 20
15.834110
 30
0.0
 10
145.858580
 20
17.406100
 30
0.0
 10
146.971170
 20
19.032860
 30
0.0
 10
148.005220
 20
20.709260
 30
0.0
 10
148.959680
 20
22.432680
 30
0.0
 10
149.832500
 20
24.198960
 30
0.0
 10
150.621600
 20
26.003500
 30
0.0
 10
151.325430
 20
27.843700
 30
0.0
 10
151.942450
 20
29.714390
 30
0.0
 10
152.470060
 20
31.612990
 30
0.0
 10
152.906730
 20
33.534830
 30
0.0
 10
153.251410
 20
35.476320
 30
0.0
 10
153.501010
 20
37.433820
 30
0.0
 10
153.654490
 20
39.403210
 30
0.0
 10
153.730490
 20
41.339010
 30
0.0
 10
153.714490
 20
43.274810
 30
0.0
 10
153.607520
 20
45.206990
 30
0.0
 10
153.411150
 20
47.130900
 30
0.0
 10
153.125900
 20
49.043960
 30
0.0
 10
152.752790
 20
50.941520
 30
0.0
 10
152.293390
 20
52.819440
 30
0.0
 10
151.748720
 20
54.674630
 30
0.0
 10
151.119820
 20
56.502940
 30
0.0
 10
150.407200
 20
58.300250
 30
0.0
 10
149.612420
 20
60.062930
 30
0.0
 10
148.736500
 20
61.786860
 30
0.0
 10
147.779970
 20
63.468920
 30
0.0
 10
146.744890
 20
65.104480
 30
0.0
 10
145.631780
 20
66.689920
 30
0.0
 10
144.441670
 20
68.221600
 30
0.0
 10
143.127030
 20
69.777070
 30
0.0
 10
141.736930
 20
71.263280
 30
0.0
 10
140.275000
 20
72.676630
 30
0.0
 10
138.745900
 20
74.016080
 30
0.0
 10
137.153750
 20
75.278540
 30
0.0
 10
135.502170
 20
76.461930
 30
0.0
 10
133.795300
 20
77.564190
 30
0.0
 10
132.037780
 20
78.582210
 30
0.0
 10
130.233240
 20
79.514970
 30
0.0
 10
128.385290
 20
80.359370
 30
0.0
 10
126.499100
 20
81.113320
 30
0.0
 10
124.577770
 20
81.774780
 30
0.0
 10
122.625430
 20
82.340640
 30
0.0
 10
120.646740
 20
82.809860
 30
0.0
 10
118.645320
 20
83.178830
 30
0.0
 10
116.625800
 20
83.446000
 30
0.0
 10
116.625800
 20
83.445480
 30
0.0
 10
116.626320
 20
83.445480
 30
0.0
 10
116.626320
 20
83.444960
 30
0.0
 10
116.626830
 20
83.444960
 30
0.0
 10
116.626830
 20
83.444450
 30
0.0
 10
116.627350
 20
83.444450
 30
0.0
 10
116.627350
 20
83.443930
 30
0.0
 10
116.225830
 20
83.485830
 30
0.0
 10
115.824300
 20
83.523030
 30
0.0
 10
115.423290
 20
83.556130
 30
0.0
 10
115.022800
 20
83.585530
 30
0.0
 10
114.622820
 20
83.611930
 30
0.0
 10
114.223360
 20
83.634630
 30
0.0
 10
113.824420
 20
83.653730
 30
0.0
 10
113.425480
 20
83.670230
 30
0.0
 10
113.027570
 20
83.684230
 30
0.0
 10
112.630180
 20
83.695630
 30
0.0
 10
112.232790
 20
83.704630
 30
0.0
 10
111.836430
 20
83.711630
 30
0.0
 10
111.440590
 20
83.716630
 30
0.0
 10
111.045260
 20
83.719630
 30
0.0
 10
110.650450
 20
83.721630
 30
0.0
  0
LWPOLYLINE
  5
101
100
AcDbEntity
  8
Wall
 62
7
100
AcDbPolyline
 90
192
 70
1
 10
41.906888
 20
81.890080
 30
0.0
 10
44.094352
 20
81.890080
 30
0.0
 10
46.281815
 20
81.890080
 30
0.0
 10
48.469279
 20
81.890080
 30
0.0
 10
50.656740
 20
81.890080
 30
0.0
 10
52.844204
 20
81.890080
 30
0.0
 10
55.031668
 20
81.890080
 30
0.0
 10
57.219132
 20
81.890080
 30
0.0
 10
59.406596
 20
81.890080
 30
0.0
 10
61.594057
 20
81.890080
 30
0.0
 10
63.782039
 20
81.890080
 30
0.0
 10
65.969501
 20
81.890080
 30
0.0
 10
68.156964
 20
81.890080
 30
0.0
 10
70.344428
 20
81.890080
 30
0.0
 10
72.531892
 20
81.890080
 30
0.0
 10
74.719356
 20
81.890080
 30
0.0
 10
76.906817
 20
81.890080
 30
0.0
 10
79.094281
 20
81.890080
 30
0.0
 10
81.281745
 20
81.890080
 30
0.0
 10
83.469209
 20
81.890080
 30
0.0
 10
85.656673
 20
81.890080
 30
0.0
 10
87.844136
 20
81.890080
 30
0.0
 10
90.031598
 20
81.890080
 30
0.0
 10
92.219062
 20
81.890080
 30
0.0
 10
94.407041
 20
81.890080
 30
0.0
 10
96.594505
 20
81.890080
 30
0.0
 10
98.781966
 20
81.890080
 30
0.0
 10
100.969310
 20
81.890080
 30
0.0
 10
103.156770
 20
81.890080
 30
0.0
 10
105.344230
 20
81.890080
 30
0.0
 10
107.531700
 20
81.890080
 30
0.0
 10
109.719160
 20
81.890080
 30
0.0
 10
111.906620
 20
81.890080
 30
0.0
 10
113.971100
 20
81.837880
 30
0.0
 10
116.007670
 20
81.683880
 30
0.0
 10
118.014260
 20
81.430670
 30
0.0
 10
119.987780
 20
81.079790
 30
0.0
 10
121.926170
 20
80.634850
 30
0.0
 10
123.826820
 20
80.097410
 30
0.0
 10
125.687690
 20
79.470060
 30
0.0
 10
127.505670
 20
78.755890
 30
0.0
 10
129.278170
 20
77.956980
 30
0.0
 10
131.003650
 20
77.075890
 30
0.0
 10
132.678480
 20
76.114710
 30
0.0
 10
134.301120
 20
75.076530
 30
0.0
 10
135.868980
 20
73.963420
 30
0.0
 10
137.378970
 20
72.777970
 30
0.0
 10
138.829010
 20
71.522740
 30
0.0
 10
140.216520
 20
70.199830
 30
0.0
 10
141.539440
 20
68.812320
 30
0.0
 10
142.794660
 20
67.361760
 30
0.0
 10
143.980120
 20
65.851770
 30
0.0
 10
145.093230
 20
64.284430
 30
0.0
 10
146.131920
 20
62.661790
 30
0.0
 10
147.092590
 20
60.986440
 30
0.0
 10
147.974190
 20
59.261480
 30
0.0
 10
148.773110
 20
57.488460
 30
0.0
 10
149.487270
 20
55.670480
 30
0.0
 10
150.114110
 20
53.810130
 30
0.0
 10
150.651540
 20
51.909470
 30
0.0
 10
151.096990
 20
49.971090
 30
0.0
 10
151.447360
 20
47.997050
 30
0.0
 10
151.701090
 20
45.990970
 30
0.0
 10
151.854570
 20
43.954400
 30
0.0
 10
151.906770
 20
41.889930
 30
0.0
 10
151.854570
 20
39.825460
 30
0.0
 10
151.701090
 20
37.788890
 30
0.0
 10
151.447360
 20
35.782290
 30
0.0
 10
151.096990
 20
33.808770
 30
0.0
 10
150.651540
 20
31.870380
 30
0.0
 10
150.114110
 20
29.969720
 30
0.0
 10
149.487270
 20
28.108850
 30
0.0
 10
148.773110
 20
26.290870
 30
0.0
 10
147.974190
 20
24.518370
 30
0.0
 10
147.092590
 20
22.792890
 30
0.0
 10
146.131920
 20
21.118080
 30
0.0
 10
145.093230
 20
19.495420
 30
0.0
 10
143.980120
 20
17.927580
 30
0.0
 10
142.794660
 20
16.417570
 30
0.0
 10
141.539440
 20
14.967550
 30
0.0
 10
140.216520
 20
13.580020
 30
0.0
 10
138.829010
 20
12.257110
 30
0.0
 10
137.378970
 20
11.001900
 30
0.0
 10
135.868980
 20
9.816430
 30
0.0
 10
134.301120
 20
8.703330
 30
0.0
 10
132.678480
 20
7.664630
 30
0.0
 10
131.003650
 20
6.703950
 30
0.0
 10
129.278170
 20
5.822360
 30
0.0
 10
127.505670
 20
5.023450
 30
0.0
 10
125.687690
 20
4.309290
 30
0.0
 10
123.826820
 20
3.682440
 30
0.0
 10
121.926170
 20
3.145010
 30
0.0
 10
119.987780
 20
2.699560
 30
0.0
 10
118.014260
 20
2.349200
 30
0.0
 10
116.007670
 20
2.095470
 30
0.0
 10
113.971100
 20
1.941450
 30
0.0
 10
111.906620
 20
1.889750
 30
0.0
 10
109.719160
 20
1.889750
 30
0.0
 10
107.531700
 20
1.889750
 30
0.0
 10
105.344230
 20
1.889750
 30
0.0
 10
103.156770
 20
1.889750
 30
0.0
 10
100.969310
 20
1.889750
 30
0.0
 10
98.781966
 20
1.889750
 30
0.0
 10
96.594505
 20
1.889750
 30
0.0
 10
94.407041
 20
1.889750
 30
0.0
 10
92.219062
 20
1.889750
 30
0.0
 10
90.031598
 20
1.889750
 30
0.0
 10
87.844136
 20
1.889750
 30
0.0
 10
85.656673
 20
1.889750
 30
0.0
 10
83.469209
 20
1.889750
 30
0.0
 10
81.281745
 20
1.889750
 30
0.0
 10
79.094281
 20
1.889750
 30
0.0
 10
76.906817
 20
1.889750
 30
0.0
 10
74.719356
 20
1.889750
 30
0.0
 10
72.531892
 20
1.889750
 30
0.0
 10
70.344428
 20
1.889750
 30
0.0
 10
68.156964
 20
1.889750
 30
0.0
 10
65.969501
 20
1.889750
 30
0.0
 10
63.782039
 20
1.889750
 30
0.0
 10
61.594057
 20
1.889750
 30
0.0
 10
59.406596
 20
1.889750
 30
0.0
 10
57.219132
 20
1.889750
 30
0.0
 10
55.031668
 20
1.889750
 30
0.0
 10
52.844204
 20
1.889750
 30
0.0
 10
50.656740
 20
1.889750
 30
0.0
 10
48.469279
 20
1.889750
 30
0.0
 10
46.281815
 20
1.889750
 30
0.0
 10
44.094352
 20
1.889750
 30
0.0
 10
41.906888
 20
1.889750
 30
0.0
 10
39.842415
 20
1.941450
 30
0.0
 10
37.805846
 20
2.095470
 30
0.0
 10
35.799251
 20
2.349200
 30
0.0
 10
33.825727
 20
2.699560
 30
0.0
 10
31.887344
 20
3.145010
 30
0.0
 10
29.986686
 20
3.682440
 30
0.0
 10
28.125816
 20
4.309290
 30
0.0
 10
26.307840
 20
5.023450
 30
0.0
 10
24.535339
 20
5.822360
 30
0.0
 10
22.809863
 20
6.703950
 30
0.0
 10
21.135030
 20
7.664630
 30
0.0
 10
19.512390
 20
8.703330
 30
0.0
 10
17.944527
 20
9.816430
 30
0.0
 10
16.434541
 20
11.001900
 30
0.0
 10
14.984501
 20
12.257110
 30
0.0
 10
13.596988
 20
13.580020
 30
0.0
 10
12.274072
 20
14.967550
 30
0.0
 10
11.018851
 20
16.417570
 30
0.0
 10
9.833399
 20
17.927580
 30
0.0
 10
8.720297
 20
19.495420
 30
0.0
 10
7.681600
 20
21.118080
 30
0.0
 10
6.720935
 20
22.792890
 30
0.0
 10
5.839335
 20
24.518370
 30
0.0
 10
5.040418
 20
26.290870
 30
0.0
 10
4.326249
 20
28.108850
 30
0.0
 10
3.699414
 20
29.969720
 30
0.0
 10
3.161979
 20
31.870380
 30
0.0
 10
2.716529
 20
33.808770
 30
0.0
 10
2.366162
 20
35.782290
 30
0.0
 10
2.112431
 20
37.788890
 30
0.0
 10
1.958435
 20
39.825460
 30
0.0
 10
1.906759
 20
41.889930
 30
0.0
 10
1.958435
 20
43.954400
 30
0.0
 10
2.112431
 20
45.990970
 30
0.0
 10
2.366162
 20
47.997050
 30
0.0
 10
2.716529
 20
49.971090
 30
0.0
 10
3.161979
 20
51.909470
 30
0.0
 10
3.699414
 20
53.810130
 30
0.0
 10
4.326249
 20
55.670480
 30
0.0
 10
5.040418
 20
57.488460
 30
0.0
 10
5.839335
 20
59.261480
 30
0.0
 10
6.720935
 20
60.986440
 30
0.0
 10
7.681600
 20
62.661790
 30
0.0
 10
8.720297
 20
64.284430
 30
0.0
 10
9.833399
 20
65.851770
 30
0.0
 10
11.018851
 20
67.361760
 30
0.0
 10
12.274072
 20
68.812320
 30
0.0
 10
13.596988
 20
70.199830
 30
0.0
 10
14.984501
 20
71.522740
 30
0.0
 10
16.434541
 20
72.777970
 30
0.0
 10
17.944527
 20
73.963420
 30
0.0
 10
19.512390
 20
75.076530
 30
0.0
 10
21.135030
 20
76.114710
 30
0.0
 10
22.809863
 20
77.075890
 30
0.0
 10
24.535339
 20
77.956980
 30
0.0
 10
26.307840
 20
78.755890
 30
0.0
 10
28.125816
 20
79.470060
 30
0.0
 10
29.986686
 20
80.097410
 30
0.0
 10
31.887344
 20
80.634850
 30
0.0
 10
33.825727
 20
81.079790
 30
0.0
 10
35.799251
 20
81.430670
 30
0.0
 10
37.805846
 20
81.683880
 30
0.0
 10
39.842415
 20
81.837880
 30
0.0
  0
LWPOLYLINE
  5
102
100
AcDbEntity
  8
Base
 62
7
100
AcDbPolyline
 90
320
 70
1
 10
110.247530
 20
83.718060
 30
0.0
 10
109.853950
 20
83.717330
 30
0.0
 10
109.460950
 20
83.715330
 30
0.0
 10
109.068550
 20
83.713330
 30
0.0
 10
108.676750
 20
83.710330
 30
0.0
 10
108.285560
 20
83.707330
 30
0.0
 10
107.895010
 20
83.704330
 30
0.0
 10
107.505100
 20
83.701330
 30
0.0
 10
107.115840
 20
83.698330
 30
0.0
 10
106.727250
 20
83.695330
 30
0.0
 10
106.339340
 20
83.693330
 30
0.0
 10
105.952120
 20
83.692330
 30
0.0
 10
105.565600
 20
83.692110
 30
0.0
 10
105.179800
 20
83.693080
 30
0.0
 10
104.794730
 20
83.695080
 30
0.0
 10
104.410400
 20
83.699080
 30
0.0
 10
104.026830
 20
83.705080
 30
0.0
 10
104.025830
 20
83.705090
 30
0.0
 10
104.024830
 20
83.705100
 30
0.0
 10
104.023830
 20
83.705100
 30
0.0
 10
104.022830
 20
83.705110
 30
0.0
 10
104.021830
 20
83.705120
 30
0.0
 10
104.020830
 20
83.705120
 30
0.0
 10
104.019830
 20
83.705120
 30
0.0
 10
104.018830
 20
83.705120
 30
0.0
 10
104.017830
 20
83.705120
 30
0.0
 10
104.016830
 20
83.705120
 30
0.0
 10
104.015830
 20
83.705120
 30
0.0
 10
104.014830
 20
83.705110
 30
0.0
 10
104.013830
 20
83.705100
 30
0.0
 10
104.012830
 20
83.705100
 30
0.0
 10
104.011830
 20
83.705090
 30
0.0
 10
104.010830
 20
83.705080
 30
0.0
 10
100.064650
 20
83.704080
 30
0.0
 10
96.118547
 20
83.703500
 30
0.0
 10
92.172263
 20
83.703480
 30
0.0
 10
88.225926
 20
83.703900
 30
0.0
 10
84.279540
 20
83.704610
 30
0.0
 10
80.333106
 20
83.705470
 30
0.0
 10
76.386624
 20
83.706350
 30
0.0
 10
72.440097
 20
83.707100
 30
0.0
 10
68.493526
 20
83.707590
 30
0.0
 10
64.546913
 20
83.707660
 30
0.0
 10
60.600259
 20
83.707190
 30
0.0
 10
56.653565
 20
83.706190
 30
0.0
 10
52.706834
 20
83.704190
 30
0.0
 10
48.760066
 20
83.701190
 30
0.0
 10
44.813263
 20
83.697190
 30
0.0
 10
40.866427
 20
83.692190
 30
0.0
 10
40.864827
 20
83.692200
 30
0.0
 10
40.863227
 20
83.692210
 30
0.0
 10
40.861627
 20
83.692230
 30
0.0
 10
40.860027
 20
83.692230
 30
0.0
 10
40.858427
 20
83.692240
 30
0.0
 10
40.856827
 20
83.692250
 30
0.0
 10
40.855227
 20
83.692250
 30
0.0
 10
40.853627
 20
83.692250
 30
0.0
 10
40.852027
 20
83.692250
 30
0.0
 10
40.850427
 20
83.692250
 30
0.0
 10
40.848827
 20
83.692240
 30
0.0
 10
40.847227
 20
83.692230
 30
0.0
 10
40.845627
 20
83.692230
 30
0.0
 10
40.844027
 20
83.692210
 30
0.0
 10
40.842427
 20
83.692200
 30
0.0
 10
40.840827
 20
83.692190
 30
0.0
 10
38.926472
 20
83.606890
 30
0.0
 10
37.019937
 20
83.431440
 30
0.0
 10
35.124817
 20
83.167250
 30
0.0
 10
33.244710
 20
82.815740
 30
0.0
 10
31.383209
 20
82.378340
 30
0.0
 10
29.543911
 20
81.856460
 30
0.0
 10
27.730411
 20
81.251520
 30
0.0
 10
25.946304
 20
80.564940
 30
0.0
 10
24.195187
 20
79.798140
 30
0.0
 10
22.480655
 20
78.952530
 30
0.0
 10
20.806303
 20
78.029550
 30
0.0
 10
19.175727
 20
77.030590
 30
0.0
 10
17.592522
 20
75.957090
 30
0.0
 10
16.060285
 20
74.810470
 30
0.0
 10
14.582610
 20
73.592140
 30
0.0
 10
13.163093
 20
72.303520
 30
0.0
 10
11.756564
 20
70.917030
 30
0.0
 10
10.420840
 20
69.464810
 30
0.0
 10
9.157750
 20
67.950690
 30
0.0
 10
7.969088
 20
66.378520
 30
0.0
 10
6.856683
 20
64.752130
 30
0.0
 10
5.822351
 20
63.075370
 30
0.0
 10
4.867910
 20
61.352060
 30
0.0
 10
3.995178
 20
59.586060
 30
0.0
 10
3.205971
 20
57.781200
 30
0.0
 10
2.502106
 20
55.941320
 30
0.0
 10
1.885401
 20
54.070260
 30
0.0
 10
1.357672
 20
52.171860
 30
0.0
 10
0.920738
 20
50.249960
 30
0.0
 10
0.576413
 20
48.308400
 30
0.0
 10
0.326518
 20
46.351010
 30
0.0
 10
0.172869
 20
44.381640
 30
0.0
 10
0.172864
 20
44.381520
 30
0.0
 10
0.172861
 20
44.381410
 30
0.0
 10
0.172859
 20
44.381300
 30
0.0
 10
0.172859
 20
44.381190
 30
0.0
 10
0.172861
 20
44.381090
 30
0.0
 10
0.172863
 20
44.380990
 30
0.0
 10
0.172866
 20
44.380880
 30
0.0
 10
0.172869
 20
44.380770
 30
0.0
 10
0.172872
 20
44.380660
 30
0.0
 10
0.172875
 20
44.380540
 30
0.0
 10
0.172877
 20
44.380410
 30
0.0
 10
0.172879
 20
44.380280
 30
0.0
 10
0.172879
 20
44.380140
 30
0.0
 10
0.172877
 20
44.379980
 30
0.0
 10
0.172874
 20
44.379820
 30
0.0
 10
0.172869
 20
44.379640
 30
0.0
 10
0.096877
 20
42.437450
 30
0.0
 10
0.113419
 20
40.495280
 30
0.0
 10
0.221404
 20
38.557010
 30
0.0
 10
0.419742
 20
36.626530
 30
0.0
 10
0.707341
 20
34.707740
 30
0.0
 10
1.083112
 20
32.804500
 30
0.0
 10
1.545961
 20
30.920720
 30
0.0
 10
2.094800
 20
29.060270
 30
0.0
 10
2.728537
 20
27.227040
 30
0.0
 10
3.446081
 20
25.424930
 30
0.0
 10
4.246342
 20
23.657800
 30
0.0
 10
5.128228
 20
21.929570
 30
0.0
 10
6.090649
 20
20.244090
 30
0.0
 10
7.132515
 20
18.605280
 30
0.0
 10
8.252734
 20
17.017000
 30
0.0
 10
9.450214
 20
15.483160
 30
0.0
 10
10.764514
 20
13.935840
 30
0.0
 10
12.153605
 20
12.458110
 30
0.0
 10
13.613451
 20
11.052210
 30
0.0
 10
15.140026
 20
9.720400
 30
0.0
 10
16.729302
 20
8.464960
 30
0.0
 10
18.377255
 20
7.288120
 30
0.0
 10
20.079857
 20
6.192170
 30
0.0
 10
21.833084
 20
5.179340
 30
0.0
 10
23.632909
 20
4.251900
 30
0.0
 10
25.475306
 20
3.412120
 30
0.0
 10
27.356250
 20
2.662240
 30
0.0
 10
29.271713
 20
2.004540
 30
0.0
 10
31.217671
 20
1.441260
 30
0.0
 10
33.190097
 20
0.974670
 30
0.0
 10
35.184965
 20
0.607020
 30
0.0
 10
37.198249
 20
0.340580
 30
0.0
 10
37.995236
 20
0.261580
 30
0.0
 10
38.790435
 20
0.198380
 30
0.0
 10
39.583762
 20
0.149280
 30
0.0
 10
40.375133
 20
0.112780
 30
0.0
 10
41.164464
 20
0.087280
 30
0.0
 10
41.951671
 20
0.071180
 30
0.0
 10
42.736671
 20
0.063180
 30
0.0
 10
43.519379
 20
0.061180
 30
0.0
 10
44.299712
 20
0.064180
 30
0.0
 10
45.077585
 20
0.070180
 30
0.0
 10
45.852915
 20
0.077180
 30
0.0
 10
46.625619
 20
0.084180
 30
0.0
 10
47.395611
 20
0.089180
 30
0.0
 10
48.162808
 20
0.091180
 30
0.0
 10
48.927127
 20
0.088180
 30
0.0
 10
49.688483
 20
0.078180
 30
0.0
 10
49.689983
 20
0.078160
 30
0.0
 10
49.691483
 20
0.078150
 30
0.0
 10
49.692983
 20
0.078140
 30
0.0
 10
49.694483
 20
0.078140
 30
0.0
 10
49.695983
 20
0.078130
 30
0.0
 10
49.697483
 20
0.078130
 30
0.0
 10
49.698983
 20
0.078120
 30
0.0
 10
49.700483
 20
0.078120
 30
0.0
 10
49.701983
 20
0.078120
 30
0.0
 10
49.703483
 20
0.078130
 30
0.0
 10
49.704983
 20
0.078130
 30
0.0
 10
49.706483
 20
0.078140
 30
0.0
 10
49.707983
 20
0.078140
 30
0.0
 10
49.709483
 20
0.078150
 30
0.0
 10
49.710983
 20
0.078160
 30
0.0
 10
49.712483
 20
0.078180
 30
0.0
 10
53.665764
 20
0.079180
 30
0.0
 10
57.619091
 20
0.079760
 30
0.0
 10
61.572463
 20
0.079770
 30
0.0
 10
65.525880
 20
0.079350
 30
0.0
 10
69.479342
 20
0.078640
 30
0.0
 10
73.432849
 20
0.077780
 30
0.0
 10
77.386399
 20
0.076900
 30
0.0
 10
81.339994
 20
0.076160
 30
0.0
 10
85.293632
 20
0.075680
 30
0.0
 10
89.247314
 20
0.075620
 30
0.0
 10
93.201038
 20
0.076100
 30
0.0
 10
97.154806
 20
0.077100
 30
0.0
 10
101.108490
 20
0.079100
 30
0.0
 10
105.062340
 20
0.082100
 30
0.0
 10
109.016240
 20
0.086100
 30
0.0
 10
112.970170
 20
0.091100
 30
0.0
 10
112.972170
 20
0.091080
 30
0.0
 10
112.974170
 20
0.091070
 30
0.0
 10
112.976170
 20
0.091060
 30
0.0
 10
112.978170
 20
0.091050
 30
0.0
 10
112.980170
 20
0.091040
 30
0.0
 10
112.982170
 20
0.091040
 30
0.0
 10
112.984170
 20
0.091030
 30
0.0
 10
112.986170
 20
0.091030
 30
0.0
 10
112.988170
 20
0.091030
 30
0.0
 10
112.990170
 20
0.091040
 30
0.0
 10
112.992170
 20
0.091040
 30
0.0
 10
112.994170
 20
0.091050
 30
0.0
 10
112.996170
 20
0.091060
 30
0.0
 10
112.998170
 20
0.091070
 30
0.0
 10
113.000170
 20
0.091080
 30
0.0
 10
113.002170
 20
0.091100
 30
0.0
 10
114.915770
 20
0.176900
 30
0.0
 10
116.821530
 20
0.352790
 30
0.0
 10
118.715860
 20
0.617350
 30
0.0
 10
120.595170
 20
0.969170
 30
0.0
 10
122.455860
 20
1.406830
 30
0.0
 10
124.294360
 20
1.928900
 30
0.0
 10
126.107060
 20
2.533970
 30
0.0
 10
127.890380
 20
3.220610
 30
0.0
 10
129.640730
 20
3.987390
 30
0.0
 10
131.354510
 20
4.832910
 30
0.0
 10
133.028130
 20
5.755740
 30
0.0
 10
134.658000
 20
6.754460
 30
0.0
 10
136.240530
 20
7.827640
 30
0.0
 10
137.772130
 20
8.973870
 30
0.0
 10
139.249210
 20
10.191720
 30
0.0
 10
140.668180
 20
11.479780
 30
0.0
 10
142.074750
 20
12.866220
 30
0.0
 10
143.410500
 20
14.318410
 30
0.0
 10
144.673620
 20
15.832510
 30
0.0
 10
145.862290
 20
17.404670
 30
0.0
 10
146.974700
 20
19.031070
 30
0.0
 10
148.009040
 20
20.707840
 30
0.0
 10
148.963470
 20
22.431160
 30
0.0
 10
149.836200
 20
24.197180
 30
0.0
 10
150.625390
 20
26.002060
 30
0.0
 10
151.329250
 20
27.841960
 30
0.0
 10
151.945940
 20
29.713040
 30
0.0
 10
152.473650
 20
31.611450
 30
0.0
 10
152.910580
 20
33.533360
 30
0.0
 10
153.254890
 20
35.474930
 30
0.0
 10
153.504780
 20
37.432310
 30
0.0
 10
153.658420
 20
39.401660
 30
0.0
 10
153.734220
 20
41.337440
 30
0.0
 10
153.718220
 20
43.273260
 30
0.0
 10
153.611370
 20
45.205250
 30
0.0
 10
153.414780
 20
47.129570
 30
0.0
 10
153.129530
 20
49.042360
 30
0.0
 10
152.756680
 20
50.939770
 30
0.0
 10
152.297300
 20
52.817940
 30
0.0
 10
151.752460
 20
54.673030
 30
0.0
 10
151.123230
 20
56.501160
 30
0.0
 10
150.410690
 20
58.298510
 30
0.0
 10
149.615890
 20
60.061200
 30
0.0
 10
148.739900
 20
61.785380
 30
0.0
 10
147.783810
 20
63.467210
 30
0.0
 10
146.748670
 20
65.102830
 30
0.0
 10
145.635560
 20
66.688380
 30
0.0
 10
144.445540
 20
68.220010
 30
0.0
 10
143.130670
 20
69.775730
 30
0.0
 10
141.740350
 20
71.261560
 30
0.0
 10
140.278640
 20
72.675210
 30
0.0
 10
138.749600
 20
74.014410
 30
0.0
 10
137.157300
 20
75.276860
 30
0.0
 10
135.505800
 20
76.460280
 30
0.0
 10
133.799170
 20
77.562380
 30
0.0
 10
132.041470
 20
78.580870
 30
0.0
 10
130.236770
 20
79.513470
 30
0.0
 10
128.389130
 20
80.357890
 30
0.0
 10
126.502610
 20
81.111850
 30
0.0
 10
124.581280
 20
81.773050
 30
0.0
 10
122.629200
 20
82.339220
 30
0.0
 10
120.650440
 20
82.808060
 30
0.0
 10
118.649070
 20
83.177290
 30
0.0
 10
116.629130
 20
83.444620
 30
0.0
 10
116.629260
 20
83.444500
 30
0.0
 10
116.629380
 20
83.444370
 30
0.0
 10
116.629510
 20
83.444250
 30
0.0
 10
116.629630
 20
83.444120
 30
0.0
 10
116.629760
 20
83.444000
 30
0.0
 10
116.629880
 20
83.443870
 30
0.0
 10
116.630010
 20
83.443750
 30
0.0
 10
116.630130
 20
83.443620
 30
0.0
 10
116.630260
 20
83.443500
 30
0.0
 10
116.630380
 20
83.443370
 30
0.0
 10
116.630510
 20
83.443250
 30
0.0
 10
116.630630
 20
83.443120
 30
0.0
 10
116.630760
 20
83.443000
 30
0.0
 10
116.630880
 20
83.442870
 30
0.0
 10
116.631010
 20
83.442750
 30
0.0
 10
116.631130
 20
83.442620
 30
0.0
 10
116.229350
 20
83.484020
 30
0.0
 10
115.827990
 20
83.521320
 30
0.0
 10
115.427060
 20
83.554620
 30
0.0
 10
115.026580
 20
83.584220
 30
0.0
 10
114.626540
 20
83.610220
 30
0.0
 10
114.226980
 20
83.632820
 30
0.0
 10
113.827900
 20
83.652320
 30
0.0
 10
113.429320
 20
83.668920
 30
0.0
 10
113.031250
 20
83.682720
 30
0.0
 10
112.633690
 20
83.694020
 30
0.0
 10
112.236670
 20
83.703020
 30
0.0
 10
111.840200
 20
83.710020
 30
0.0
 10
111.444290
 20
83.715020
 30
0.0
 10
111.048950
 20
83.718020
 30
0.0
 10
110.654200
 20
83.720020
 30
0.0
 10
110.260040
 20
83.720390
 30
0.0
 10
110.260040
 20
83.720400
 30
0.0
 10
110.260040
 20
83.720400
 30
0.0
 10
110.260030
 20
83.720410
 30
0.0
 10
110.260030
 20
83.720410
 30
0.0
 10
110.260030
 20
83.720410
 30
0.0
 10
110.260020
 20
83.720420
 30
0.0
 10
110.260020
 20
83.720420
 30
0.0
 10
110.260020
 20
83.720430
 30
0.0
 10
110.260010
 20
83.720430
 30
0.0
 10
110.260010
 20
83.720430
 30
0.0
 10
110.260010
 20
83.720440
 30
0.0
 10
110.260000
 20
83.720440
 30
0.0
 10
110.260000
 20
83.720450
 30
0.0
 10
110.260000
 20
83.720450
 30
0.0
 10
110.259990
 20
83.720450
 30
0.0
  0
LWPOLYLINE
  5
103
100
AcDbEntity
  8
Support
 62
7
100
AcDbPolyline
 90
109
 70
1
 10
124.595494
 20
81.767663
 30
0.0
 10
124.595494
 20
75.432130
 30
0.0
 10
126.035201
 20
74.857490
 30
0.0
 10
127.619081
 20
74.134537
 30
0.0
 10
129.167825
 20
73.334069
 30
0.0
 10
130.677810
 20
72.459187
 30
0.0
 10
132.140770
 20
71.513508
 30
0.0
 10
133.554638
 20
70.502199
 30
0.0
 10
134.919927
 20
69.418030
 30
0.0
 10
136.228377
 20
68.273394
 30
0.0
 10
137.474810
 20
67.068302
 30
0.0
 10
138.660268
 20
65.798612
 30
0.0
 10
139.796632
 20
64.455023
 30
0.0
 10
140.822411
 20
63.132625
 30
0.0
 10
141.771707
 20
61.783353
 30
0.0
 10
142.654341
 20
60.388605
 30
0.0
 10
143.470827
 20
58.950968
 30
0.0
 10
144.220653
 20
57.476638
 30
0.0
 10
144.902265
 20
55.964586
 30
0.0
 10
145.513598
 20
54.425661
 30
0.0
 10
146.052583
 20
52.857283
 30
0.0
 10
146.519737
 20
51.265647
 30
0.0
 10
146.914027
 20
49.652311
 30
0.0
 10
147.234421
 20
48.025536
 30
0.0
 10
147.478335
 20
46.382743
 30
0.0
 10
147.648351
 20
44.734265
 30
0.0
 10
147.740334
 20
43.084236
 30
0.0
 10
147.751703
 20
41.431625
 30
0.0
 10
147.687623
 20
39.753690
 30
0.0
 10
147.552749
 20
38.041132
 30
0.0
 10
147.341908
 20
36.375085
 30
0.0
 10
147.046837
 20
34.718855
 30
0.0
 10
146.673732
 20
33.076062
 30
0.0
 10
146.220530
 20
31.451364
 30
0.0
 10
145.693430
 20
29.847830
 30
0.0
 10
145.089849
 20
28.271708
 30
0.0
 10
144.411854
 20
26.722440
 30
0.0
 10
143.662030
 20
25.205213
 30
0.0
 10
142.845542
 20
23.726748
 30
0.0
 10
141.960842
 20
22.292733
 30
0.0
 10
141.003793
 20
20.896447
 30
0.0
 10
139.990421
 20
19.552867
 30
0.0
 10
138.911931
 20
18.261991
 30
0.0
 10
137.771434
 20
17.023291
 30
0.0
 10
136.554454
 20
15.824411
 30
0.0
 10
135.335924
 20
14.714908
 30
0.0
 10
134.076052
 20
13.679831
 30
0.0
 10
132.765539
 20
12.699021
 30
0.0
 10
131.416267
 20
11.781234
 30
0.0
 10
130.019452
 20
10.925995
 30
0.0
 10
128.588014
 20
10.134838
 30
0.0
 10
127.117304
 20
9.411864
 30
0.0
 10
125.613521
 20
8.751967
 30
0.0
 10
124.595494
 20
8.360251
 30
0.0
 10
124.595494
 20
2.029380
 30
0.0
 10
126.107030
 20
2.533729
 30
0.0
 10
127.890382
 20
3.220508
 30
0.0
 10
129.640664
 20
3.987403
 30
0.0
 10
131.354254
 20
4.832826
 30
0.0
 10
133.028053
 20
5.755772
 30
0.0
 10
134.657929
 20
6.754680
 30
0.0
 10
136.240778
 20
7.827486
 30
0.0
 10
137.771950
 20
8.973661
 30
0.0
 10
139.249381
 20
10.191670
 30
0.0
 10
140.668416
 20
11.479953
 30
0.0
 10
142.074530
 20
12.866449
 30
0.0
 10
143.410367
 20
14.318562
 30
0.0
 10
144.673855
 20
15.832666
 30
0.0
 10
145.862414
 20
17.404662
 30
0.0
 10
146.974489
 20
19.030923
 30
0.0
 10
148.009053
 20
20.707826
 30
0.0
 10
148.963516
 20
22.431242
 30
0.0
 10
149.836331
 20
24.197018
 30
0.0
 10
150.625430
 20
26.002085
 30
0.0
 10
151.329261
 20
27.841760
 30
0.0
 10
151.945761
 20
29.712946
 30
0.0
 10
152.473896
 20
31.611543
 30
0.0
 10
152.910562
 20
33.533397
 30
0.0
 10
153.254727
 20
35.474880
 30
0.0
 10
153.504840
 20
37.432384
 30
0.0
 10
153.658319
 20
39.401773
 30
0.0
 10
153.734284
 20
41.337573
 30
0.0
 10
153.718263
 20
43.273371
 30
0.0
 10
153.611292
 20
45.205035
 30
0.0
 10
153.414924
 20
47.129466
 30
0.0
 10
153.129669
 20
49.042528
 30
0.0
 10
152.756566
 20
50.939569
 30
0.0
 10
152.297162
 20
52.818008
 30
0.0
 10
151.752491
 20
54.673192
 30
0.0
 10
151.123074
 20
56.500987
 30
0.0
 10
150.410456
 20
58.298293
 30
0.0
 10
149.615671
 20
60.060977
 30
0.0
 10
148.739758
 20
61.785420
 30
0.0
 10
147.783741
 20
63.466971
 30
0.0
 10
146.748662
 20
65.103046
 30
0.0
 10
145.635552
 20
66.688479
 30
0.0
 10
144.445446
 20
68.220168
 30
0.0
 10
143.130797
 20
69.775630
 30
0.0
 10
141.740184
 20
71.261326
 30
0.0
 10
140.278774
 20
72.675193
 30
0.0
 10
138.749668
 20
74.014646
 30
0.0
 10
137.157516
 20
75.277103
 30
0.0
 10
135.505940
 20
76.460492
 30
0.0
 10
133.799068
 20
77.562235
 30
0.0
 10
132.041552
 20
78.580778
 30
0.0
 10
130.237011
 20
79.513537
 30
0.0
 10
128.389061
 20
80.357929
 30
0.0
 10
126.502354
 20
81.111888
 30
0.0
 10
124.595494
 20
81.767663
 30
0.0
  0
LWPOLYLINE
  5
104
100
AcDbEntity
  8
Support
 62
7
100
AcDbPolyline
 90
87
 70
0
 10
29.235423
 20
81.753709
 30
0.0
 10
27.730606
 20
81.251416
 30
0.0
 10
25.946220
 20
80.565153
 30
0.0
 10
24.195422
 20
79.798274
 30
0.0
 10
22.480798
 20
78.952330
 30
0.0
 10
20.806482
 20
78.029389
 30
0.0
 10
19.175573
 20
77.030484
 30
0.0
 10
17.592725
 20
75.957164
 30
0.0
 10
16.060518
 20
74.810465
 30
0.0
 10
14.582572
 20
73.591935
 30
0.0
 10
13.163021
 20
72.303642
 30
0.0
 10
11.756388
 20
70.917161
 30
0.0
 10
10.421069
 20
69.465054
 30
0.0
 10
9.157580
 20
67.950934
 30
0.0
 10
7.969023
 20
66.378422
 30
0.0
 10
6.856429
 20
64.752163
 30
0.0
 10
5.822383
 20
63.075263
 30
0.0
 10
4.867920
 20
61.351855
 30
0.0
 10
3.995105
 20
59.586071
 30
0.0
 10
3.206006
 20
57.781012
 30
0.0
 10
2.502173
 20
55.941332
 30
0.0
 10
1.885156
 20
54.070127
 30
0.0
 10
1.357540
 20
52.172054
 30
0.0
 10
0.920874
 20
50.250206
 30
0.0
 10
0.576192
 20
48.308206
 30
0.0
 10
0.326595
 20
46.351221
 30
0.0
 10
0.173116
 20
44.381832
 30
0.0
 10
0.173116
 20
44.381313
 30
0.0
 10
0.173116
 20
44.380797
 30
0.0
 10
0.173116
 20
44.380282
 30
0.0
 10
0.173116
 20
44.379763
 30
0.0
 10
0.096635
 20
42.437248
 30
0.0
 10
0.113171
 20
40.495246
 30
0.0
 10
0.221175
 20
38.556863
 30
0.0
 10
0.419613
 20
36.626749
 30
0.0
 10
0.707450
 20
34.707485
 30
0.0
 10
1.083138
 20
32.804761
 30
0.0
 10
1.546159
 20
30.920636
 30
0.0
 10
2.094963
 20
29.060298
 30
0.0
 10
2.728516
 20
27.226815
 30
0.0
 10
3.446301
 20
25.424844
 30
0.0
 10
4.246252
 20
23.658036
 30
0.0
 10
5.128369
 20
21.929460
 30
0.0
 10
6.090584
 20
20.244276
 30
0.0
 10
7.132381
 20
18.605103
 30
0.0
 10
8.252726
 20
17.017100
 30
0.0
 10
9.450069
 20
15.483337
 30
0.0
 10
10.764718
 20
13.935630
 30
0.0
 10
12.153780
 20
12.458197
 30
0.0
 10
13.613639
 20
11.052095
 30
0.0
 10
15.140161
 20
9.720394
 30
0.0
 10
16.729211
 20
8.465158
 30
0.0
 10
18.377173
 20
7.287974
 30
0.0
 10
20.079911
 20
6.192440
 30
0.0
 10
21.833292
 20
5.179562
 30
0.0
 10
23.632666
 20
4.251986
 30
0.0
 10
25.475447
 20
3.412252
 30
0.0
 10
27.356469
 20
2.662422
 30
0.0
 10
29.235423
 20
2.016971
 30
0.0
 10
29.235423
 20
8.350964
 30
0.0
 10
27.824141
 20
8.914236
 30
0.0
 10
26.245943
 20
9.633055
 30
0.0
 10
24.701334
 20
10.429901
 30
0.0
 10
23.195483
 20
11.298581
 30
0.0
 10
21.734590
 20
12.240127
 30
0.0
 10
20.322274
 20
13.247819
 30
0.0
 10
18.962667
 20
14.322160
 30
0.0
 10
17.656286
 20
15.462673
 30
0.0
 10
16.408301
 20
16.664146
 30
0.0
 10
15.224394
 20
17.924012
 30
0.0
 10
14.090096
 20
19.259841
 30
0.0
 10
13.054500
 20
20.583789
 30
0.0
 10
12.101587
 20
21.935651
 30
0.0
 10
11.212752
 20
23.331963
 30
0.0
 10
10.392647
 20
24.771667
 30
0.0
 10
9.636621
 20
26.253730
 30
0.0
 10
8.951391
 20
27.767332
 30
0.0
 10
8.335925
 20
29.308848
 30
0.0
 10
7.792806
 20
30.882907
 30
0.0
 10
7.322034
 20
32.480231
 30
0.0
 10
6.923608
 20
34.099772
 30
0.0
 10
6.601664
 20
35.730679
 30
0.0
 10
6.355684
 20
37.377092
 30
0.0
 10
6.183602
 20
39.029187
 30
0.0
 10
6.091618
 20
40.685415
 30
0.0
 10
6.080249
 20
42.343712
 30
0.0
 10
6.150529
 20
44.144636
 30
0.0
  0
SPLINE
  5
105
100
AcDbEntity
  8
Support
 62
7
100
AcDbSpline
 70
0
 71
3
 72
10
 73
6
 74
4
 40
0.000000
 40
0.000000
 40
0.000000
 40
0.000000
 40
0.049109
 40
0.098217
 40
0.147325
 40
0.147325
 40
0.147325
 40
0.147325
 10
6.150529
 20
44.144636
 30
0.0
 10
6.151092
 20
44.160996
 30
0.0
 10
6.152218
 20
44.193715
 30
0.0
 10
6.153424
 20
44.242810
 30
0.0
 10
6.153906
 20
44.275546
 30
0.0
 10
6.154146
 20
44.291913
 30
0.0
 11
6.150529
 21
44.144636
 31
0.0
 11
6.152138
 21
44.193718
 31
0.0
 11
6.153344
 21
44.242811
 31
0.0
 11
6.154146
 21
44.291913
 31
0.0
  0
LWPOLYLINE
  5
106
100
AcDbEntity
  8
Support
 62
7
100
AcDbPolyline
 90
29
 70
0
 10
6.154146
 20
44.291913
 30
0.0
 10
6.154146
 20
44.150322
 30
0.0
 10
6.277136
 20
45.741954
 30
0.0
 10
6.490043
 20
47.408004
 30
0.0
 10
6.783048
 20
49.064232
 30
0.0
 10
7.158219
 20
50.707027
 30
0.0
 10
7.609355
 20
52.332249
 30
0.0
 10
8.138521
 20
53.935769
 30
0.0
 10
8.740035
 20
55.511900
 30
0.0
 10
9.420097
 20
57.060644
 30
0.0
 10
10.167855
 20
58.578381
 30
0.0
 10
10.984342
 20
60.054775
 30
0.0
 10
11.873177
 20
61.492415
 30
0.0
 10
12.826090
 20
62.886645
 30
0.0
 10
13.842049
 20
64.230230
 30
0.0
 10
14.922087
 20
65.523694
 30
0.0
 10
16.056384
 20
66.759793
 30
0.0
 10
17.273364
 20
67.957135
 30
0.0
 10
18.498095
 20
69.068179
 30
0.0
 10
19.755900
 20
70.107391
 30
0.0
 10
21.064347
 20
71.086143
 30
0.0
 10
22.416202
 20
72.003916
 30
0.0
 10
23.814567
 20
72.857613
 30
0.0
 10
25.250138
 20
73.650328
 30
0.0
 10
26.716714
 20
74.373281
 30
0.0
 10
28.220500
 20
75.031123
 30
0.0
 10
29.235423
 20
75.422830
 30
0.0
 10
29.235423
 20
81.753709
 30
0.0
 10
29.235423
 20
81.753709
 30
0.0
  0
ENDSEC
  0
SECTION
  2
OBJECTS
  0
DICTIONARY
  5
C
330
0
100
AcDbDictionary
  3
ACAD_GROUP
350
D
  3
ACAD_MLINESTYLE
350
17
  0
DICTIONARY
  5
D
330
C
100
AcDbDictionary
  0
DICTIONARY
  5
1A
330
C
100
AcDbDictionary
  0
DICTIONARY
  5
17
330
C
100
AcDbDictionary
  3
STANDARD
350
18
  0
DICTIONARY
  5
19
330
C
100
AcDbDictionary
  0
ENDSEC
  0
EOF
